<svg class="w-8 h-6" viewBox="0 0 110 55" fill="currentColor"
    xmlns="http://www.w3.org/2000/svg">
    <path d="M12.20 43.90L0 9.50L11.80 9.50L18.70 32.50L18.90 32.50L25.85 9.50L37.15 9.50L25 43.90L12.20 43.90ZM41.75 9.50L52.80 9.50L52.80 35.10L70.45 35.10L70.45 43.90L41.75 43.90L41.75 9.50ZM107.75 20.05Q107.75 23.20 106.05 25.75Q104.35 28.30 101.10 29.50L108.75 43.90L96.35 43.90L90.25 31.35L86.15 31.35L86.15 43.90L75.10 43.90L75.10 9.50L96.15 9.50Q99.85 9.50 102.48 10.92Q105.10 12.35 106.43 14.77Q107.75 17.20 107.75 20.05M96.50 20.50Q96.50 19.15 95.60 18.25Q94.70 17.35 93.40 17.35L86.15 17.35L86.15 23.70L93.40 23.70Q94.70 23.70 95.60 22.77Q96.50 21.85 96.50 20.50Z" />
</svg>